:SAMPLES-PER-SECOND 30
:FULLY-SPECIFIED
:DEGREES
156
root  -58.0325 41.586 -3.56869 -140.857 -88.5495 138.911
RightUpLeg  1.30143 -7.58263 -4.87398
RightLeg  4.36079 1.63597 3.09495
RightFoot  -2.34189 0.0984689 -1.454
RightToes  1.74622e-010 0 -3.6325e-017
Spine  -0.576145 -0.767193 1.85213
Spine1  6.31642 -0.5578 -1.00641
HEad  -2.51845 3.15957 -1.22389
LeftShoulder1  0.491641 0.0561524 -6.44504
LeftArm  -21.5934 10.3667 1.97003
LeftForeArm  13.204 -13.4979 -1.9677
LeftHand  -0.244104 0.0205437 5.32207
RightShoulder  0.144493 -2.17382 2.77572
RightArm  -24.3911 -1.05191 -1.647
RightForeArm  -10.4991 6.34714 3.63798
RightHand  -1.10534 2.63379 -16.1219
LeftUpLeg  0.595992 4.81312 3.42994
LeftLeg  1.11376 5.497 -3.63113
LeftFoot  -0.443009 0.0725467 -0.731299
LeftToes  1.00041e-010 1.90862e-010 2.54823e-011
157
root  -58.0415 41.5885 -3.51305 -138.062 -88.5906 136.315
RightUpLeg  1.14484 -7.56916 -4.94826
RightLeg  4.2789 1.56282 3.05259
RightFoot  -2.31722 0.0869996 -1.29675
RightToes  1.74622e-010 0 -3.6325e-017
Spine  -0.562324 -0.804799 1.63619
Spine1  6.17141 -0.684368 -0.636602
HEad  -2.55113 3.39573 -1.12989
LeftShoulder1  0.551402 -0.263226 -6.8868
LeftArm  -21.0131 8.92238 1.87862
LeftForeArm  13.169 -11.6631 -1.87439
LeftHand  -0.244104 0.0205437 5.32207
RightShoulder  0.17056 -1.93175 2.75117
RightArm  -23.4454 0.173255 -1.72925
RightForeArm  -9.5565 5.02737 3.73984
RightHand  -1.03346 2.5443 -15.2625
LeftUpLeg  0.415087 4.73847 3.29715
LeftLeg  1.04256 5.55295 -3.65019
LeftFoot  -0.41874 0.0637423 -0.64157
LeftToes  1.00041e-010 1.90862e-010 2.54823e-011
158
root  -58.0464 41.5918 -3.45829 -138.141 -88.6364 136.488
RightUpLeg  1.1294 -7.52363 -4.96024
RightLeg  4.10994 1.49161 2.99224
RightFoot  -2.23587 0.0775295 -1.14956
RightToes  1.74622e-010 0 -3.6325e-017
Spine  -0.339582 -0.89853 1.58009
Spine1  6.00343 -0.827477 -0.441421
HEad  -2.88103 3.55946 -1.17816
LeftShoulder1  0.617352 -0.57691 -7.4428
LeftArm  -20.2764 7.96162 1.81743
LeftForeArm  12.4573 -9.87799 -1.92321
LeftHand  -0.244104 0.0205437 5.32207
RightShoulder  0.211596 -1.5898 2.99043
RightArm  -22.437 1.15775 -1.62082
RightForeArm  -8.58077 4.10227 3.9113
RightHand  -0.958526 2.26877 -14.671
LeftUpLeg  0.314054 4.69597 3.23366
LeftLeg  1.03628 5.5872 -3.64781
LeftFoot  -0.403717 0.0605561 -0.614031
LeftToes  1.00041e-010 1.90862e-010 2.54823e-011
159
root  -58.0527 41.5957 -3.40553 -141.797 -88.5828 140.222
RightUpLeg  1.10448 -7.4866 -4.96899
RightLeg  3.96335 1.55329 2.94556
RightFoot  -2.13691 0.0725538 -1.07223
RightToes  1.74622e-010 0 -3.6325e-017
Spine  -0.0879439 -0.94515 1.56246
Spine1  5.88334 -0.915124 -0.277085
HEad  -3.48163 3.64608 -1.4237
LeftShoulder1  0.74253 -1.219 -8.11795
LeftArm  -19.6029 7.91826 1.89236
LeftForeArm  11.2663 -8.56714 -1.97442
LeftHand  -0.244104 0.0205437 5.32207
RightShoulder  0.245081 -1.33206 3.25572
RightArm  -21.9212 1.82626 -1.26043
RightForeArm  -7.22275 3.69474 3.97049
RightHand  -0.895578 1.93517 -14.3262
LeftUpLeg  0.275064 4.681 3.18823
LeftLeg  0.983031 5.70523 -3.66536
LeftFoot  -0.394826 0.0571387 -0.576683
LeftToes  1.00041e-010 1.90862e-010 2.54823e-011
160
root  -58.0621 41.6 -3.35876 -147.091 -88.4039 145.715
RightUpLeg  0.910394 -7.44133 -4.98065
RightLeg  3.85911 1.72873 2.90966
RightFoot  -2.04871 0.0681984 -1.00454
RightToes  1.74622e-010 0 -3.6325e-017
Spine  -0.00615679 -0.883028 1.59882
Spine1  5.79827 -0.872939 -0.205639
HEad  -4.14846 3.66628 -1.72465
LeftShoulder1  0.918354 -2.13431 -8.78591
LeftArm  -19.2491 8.47277 2.06487
LeftForeArm  10.7105 -7.71002 -1.88084
LeftHand  -0.244104 0.0205437 5.32207
RightShoulder  0.269091 -1.16628 3.51145
RightArm  -21.7338 2.08297 -0.873686
RightForeArm  -5.81774 3.51074 3.92667
RightHand  -0.86426 1.84325 -14.005
LeftUpLeg  0.152454 4.66786 3.12534
LeftLeg  0.866763 5.95658 -3.70519
LeftFoot  -0.370031 0.0507976 -0.505399
LeftToes  1.00041e-010 1.90862e-010 2.54823e-011
161
root  -58.0741 41.6046 -3.3181 -151.355 -88.2032 150.242
RightUpLeg  0.666403 -7.40038 -4.99128
RightLeg  3.72949 1.9189 2.89641
RightFoot  -1.96599 0.0611264 -0.894652
RightToes  1.74622e-010 0 -3.6325e-017
Spine  0.00389359 -0.796245 1.84658
Spine1  5.68976 -0.716642 -0.534159
HEad  -4.72542 3.62133 -1.75954
LeftShoulder1  1.02101 -2.72038 -8.92867
LeftArm  -18.9614 8.78662 1.94948
LeftForeArm  10.8257 -6.77639 -1.77419
LeftHand  -0.244104 0.0205437 5.32207
RightShoulder  0.300354 -1.00388 4.0764
RightArm  -21.3685 2.04876 -0.849326
RightForeArm  -4.92145 3.27168 3.93632
RightHand  -0.87182 2.0797 -13.696
LeftUpLeg  -0.0245214 4.6637 3.0732
LeftLeg  0.734767 6.21444 -3.75799
LeftFoot  -0.317368 0.0429267 -0.424627
LeftToes  1.00041e-010 1.90862e-010 2.54823e-011
162
root  -58.0902 41.6092 -3.28003 -154.368 -88.0154 153.427
RightUpLeg  0.538856 -7.41181 -5.03706
RightLeg  3.59245 2.14298 2.91902
RightFoot  -1.8948 0.0547171 -0.795068
RightToes  1.74622e-010 0 -3.6325e-017
Spine  0.132835 -0.775025 2.14656
Spine1  5.57077 -0.573246 -1.08731
HEad  -5.26872 3.61553 -1.53037
LeftShoulder1  0.965298 -2.55081 -8.40214
LeftArm  -18.2905 8.56954 1.36828
LeftForeArm  10.3911 -5.59815 -1.90043
LeftHand  -0.244104 0.0205437 5.32207
RightShoulder  0.343178 -0.838309 5.05104
RightArm  -20.932 2.10196 -1.30059
RightForeArm  -4.46064 2.91301 3.9889
RightHand  -0.894128 2.37244 -13.5305
LeftUpLeg  -0.0840109 4.67459 3.03557
LeftLeg  0.579156 6.42877 -3.8249
LeftFoot  -0.264657 0.036338 -0.356374
LeftToes  1.00041e-010 1.90862e-010 2.54823e-011
